#Comment line ignore any data following # character 
#Hierarchical Translation and Rotation (.htr) file 
[Header]	
#Header keywords are followed by a single value 
FileType HTR		#Single word string
DataType HTRS		#Translation followed by rotation and scale data
FileVersion 1		#integer
NumSegments 84		#integer
NumFrames 2		#integer
DataFrameRate 30		#integer, data frame rate in this file
EulerRotationOrder ZYX
CalibrationUnits mm
RotationUnits Degrees
GlobalAxisofGravity Y
BoneLengthAxis Y
ScaleFactor 1.00
[SegmentNames&Hierarchy]
#CHILD	PARENT
MASTER GLOBAL
root MASTER
chest root
L_mid_tent01 root
R_mid_tent01 root
spine01 root
Bip01_Neck chest
L_humerus chest
R_humerus chest
weapon_bone chest
Bip01_Head Bip01_Neck
eye_left_bone Bip01_Head
eye_right_bone Bip01_Head
L_forearm L_humerus
L_front_hand L_forearm
L_weapon_bone L_forearm
L_front_hand01_01 L_front_hand
L_front_hand02_01 L_front_hand
L_front_hand03_01 L_front_hand
L_front_hand01_02 L_front_hand01_01
L_front_hand02_02 L_front_hand02_01
L_front_hand03_02 L_front_hand03_01
R_forearm R_humerus
R_front_hand R_forearm
R_weapon_bone R_forearm
R_front_hand01_01 R_front_hand
R_front_hand02_01 R_front_hand
R_front_hand03_01 R_front_hand
R_front_hand01_02 R_front_hand01_01
R_front_hand02_02 R_front_hand02_01
R_front_hand03_02 R_front_hand03_01
null_rope01_connect L_mid_tent01
Rope1_Seg01 null_rope01_connect
Rope1_Seg02 Rope1_Seg01
Rope1_Seg03 Rope1_Seg02
Rope1_Seg04 Rope1_Seg03
Rope1_Seg05 Rope1_Seg04
Rope1_Seg06 Rope1_Seg05
Rope1_Seg07 Rope1_Seg06
Rope1_Seg09 Rope1_Seg07
L_mid_hand01 Rope1_Seg09
L_mid_hand02 Rope1_Seg09
L_mid_hand03 Rope1_Seg09
null_rope02_connect R_mid_tent01
Rope2_Seg01 null_rope02_connect
Rope2_Seg02 Rope2_Seg01
Rope2_Seg03 Rope2_Seg02
Rope2_Seg04 Rope2_Seg03
Rope2_Seg05 Rope2_Seg04
Rope2_Seg06 Rope2_Seg05
Rope2_Seg07 Rope2_Seg06
Rope2_Seg09 Rope2_Seg07
R_mid_hand01 Rope2_Seg09
R_mid_hand02 Rope2_Seg09
R_mid_hand03 Rope2_Seg09
spine02 spine01
spine03 spine02
pelvis spine03
null_rope03_connect pelvis
null_rope04_connect pelvis
Rope3_Seg01 null_rope03_connect
Rope3_Seg02 Rope3_Seg01
Rope3_Seg03 Rope3_Seg02
Rope3_Seg04 Rope3_Seg03
Rope3_Seg05 Rope3_Seg04
Rope3_Seg06 Rope3_Seg05
Rope3_Seg07 Rope3_Seg06
Rope3_Seg08 Rope3_Seg07
Rope3_Seg09 Rope3_Seg08
R_rear_hand01 Rope3_Seg09
R_rear_hand02 Rope3_Seg09
R_rear_hand03 Rope3_Seg09
Rope4_Seg01 null_rope04_connect
Rope4_Seg02 Rope4_Seg01
Rope4_Seg03 Rope4_Seg02
Rope4_Seg04 Rope4_Seg03
Rope4_Seg05 Rope4_Seg04
Rope4_Seg06 Rope4_Seg05
Rope4_Seg07 Rope4_Seg06
Rope4_Seg08 Rope4_Seg07
Rope4_Seg09 Rope4_Seg08
L_rear_hand01 Rope4_Seg09
L_rear_hand02 Rope4_Seg09
L_rear_hand03 Rope4_Seg09
[BasePosition]
#SegmentName Tx, Ty, Tz, Rx, Ry, Rz, BoneLength
MASTER 0.000000 0.000000 0.000000 -90.000000 0.000000 0.000000 10.000000 
root 0.000000 0.000000 0.000000 0.000000 0.000000 0.000000 10.000000 
chest 0.000000 0.000000 0.000000 0.000000 0.000000 0.000000 10.000000 
L_mid_tent01 0.000000 0.000000 0.000000 0.000000 0.000000 0.000000 10.000000 
R_mid_tent01 0.000000 0.000000 0.000000 0.000000 0.000000 0.000000 10.000000 
spine01 0.000000 0.000000 0.000000 0.000000 0.000000 0.000000 10.000000 
Bip01_Neck 0.000000 0.000000 0.000000 0.000000 0.000000 0.000000 10.000000 
L_humerus 0.000000 0.000000 0.000000 0.000000 0.000000 0.000000 10.000000 
R_humerus 0.000000 0.000000 0.000000 0.000000 0.000000 0.000000 10.000000 
weapon_bone 0.000000 0.000000 0.000000 0.000000 0.000000 0.000000 10.000000 
Bip01_Head 0.000000 0.000000 0.000000 0.000000 0.000000 0.000000 10.000000 
eye_left_bone 0.000000 0.000000 0.000000 0.000000 0.000000 0.000000 10.000000 
eye_right_bone 0.000000 0.000000 0.000000 0.000000 0.000000 0.000000 10.000000 
L_forearm 0.000000 0.000000 0.000000 0.000000 0.000000 0.000000 10.000000 
L_front_hand 0.000000 0.000000 0.000000 0.000000 0.000000 0.000000 10.000000 
L_weapon_bone 0.000000 0.000000 0.000000 0.000000 0.000000 0.000000 10.000000 
L_front_hand01_01 0.000000 0.000000 0.000000 0.000000 0.000000 0.000000 10.000000 
L_front_hand02_01 0.000000 0.000000 0.000000 0.000000 0.000000 0.000000 10.000000 
L_front_hand03_01 0.000000 0.000000 0.000000 0.000000 0.000000 0.000000 10.000000 
L_front_hand01_02 0.000000 0.000000 0.000000 0.000000 0.000000 0.000000 10.000000 
L_front_hand02_02 0.000000 0.000000 0.000000 0.000000 0.000000 0.000000 10.000000 
L_front_hand03_02 0.000000 0.000000 0.000000 0.000000 0.000000 0.000000 10.000000 
R_forearm 0.000000 0.000000 0.000000 0.000000 0.000000 0.000000 10.000000 
R_front_hand 0.000000 0.000000 0.000000 0.000000 0.000000 0.000000 10.000000 
R_weapon_bone 0.000000 0.000000 0.000000 0.000000 0.000000 0.000000 10.000000 
R_front_hand01_01 0.000000 0.000000 0.000000 0.000000 0.000000 0.000000 10.000000 
R_front_hand02_01 0.000000 0.000000 0.000000 0.000000 0.000000 0.000000 10.000000 
R_front_hand03_01 0.000000 0.000000 0.000000 0.000000 0.000000 0.000000 10.000000 
R_front_hand01_02 0.000000 0.000000 0.000000 0.000000 0.000000 0.000000 10.000000 
R_front_hand02_02 0.000000 0.000000 0.000000 0.000000 0.000000 0.000000 10.000000 
R_front_hand03_02 0.000000 0.000000 0.000000 0.000000 0.000000 0.000000 10.000000 
null_rope01_connect 0.000000 0.000000 0.000000 0.000000 0.000000 0.000000 10.000000 
Rope1_Seg01 0.000000 0.000000 0.000000 0.000000 0.000000 0.000000 10.000000 
Rope1_Seg02 0.000000 0.000000 0.000000 0.000000 0.000000 0.000000 10.000000 
Rope1_Seg03 0.000000 0.000000 0.000000 0.000000 0.000000 0.000000 10.000000 
Rope1_Seg04 0.000000 0.000000 0.000000 0.000000 0.000000 0.000000 10.000000 
Rope1_Seg05 0.000000 0.000000 0.000000 0.000000 0.000000 0.000000 10.000000 
Rope1_Seg06 0.000000 0.000000 0.000000 0.000000 0.000000 0.000000 10.000000 
Rope1_Seg07 0.000000 0.000000 0.000000 0.000000 0.000000 0.000000 10.000000 
Rope1_Seg09 0.000000 0.000000 0.000000 0.000000 0.000000 0.000000 10.000000 
L_mid_hand01 0.000000 0.000000 0.000000 0.000000 0.000000 0.000000 10.000000 
L_mid_hand02 0.000000 0.000000 0.000000 0.000000 0.000000 0.000000 10.000000 
L_mid_hand03 0.000000 0.000000 0.000000 0.000000 0.000000 0.000000 10.000000 
null_rope02_connect 0.000000 0.000000 0.000000 0.000000 0.000000 0.000000 10.000000 
Rope2_Seg01 0.000000 0.000000 0.000000 0.000000 0.000000 0.000000 10.000000 
Rope2_Seg02 0.000000 0.000000 0.000000 0.000000 0.000000 0.000000 10.000000 
Rope2_Seg03 0.000000 0.000000 0.000000 0.000000 0.000000 0.000000 10.000000 
Rope2_Seg04 0.000000 0.000000 0.000000 0.000000 0.000000 0.000000 10.000000 
Rope2_Seg05 0.000000 0.000000 0.000000 0.000000 0.000000 0.000000 10.000000 
Rope2_Seg06 0.000000 0.000000 0.000000 0.000000 0.000000 0.000000 10.000000 
Rope2_Seg07 0.000000 0.000000 0.000000 0.000000 0.000000 0.000000 10.000000 
Rope2_Seg09 0.000000 0.000000 0.000000 0.000000 0.000000 0.000000 10.000000 
R_mid_hand01 0.000000 0.000000 0.000000 0.000000 0.000000 0.000000 10.000000 
R_mid_hand02 0.000000 0.000000 0.000000 0.000000 0.000000 0.000000 10.000000 
R_mid_hand03 0.000000 0.000000 0.000000 0.000000 0.000000 0.000000 10.000000 
spine02 0.000000 0.000000 0.000000 0.000000 0.000000 0.000000 10.000000 
spine03 0.000000 0.000000 0.000000 0.000000 0.000000 0.000000 10.000000 
pelvis 0.000000 0.000000 0.000000 0.000000 0.000000 0.000000 10.000000 
null_rope03_connect 0.000000 0.000000 0.000000 0.000000 0.000000 0.000000 10.000000 
null_rope04_connect 0.000000 0.000000 0.000000 0.000000 0.000000 0.000000 10.000000 
Rope3_Seg01 0.000000 0.000000 0.000000 0.000000 0.000000 0.000000 10.000000 
Rope3_Seg02 0.000000 0.000000 0.000000 0.000000 0.000000 0.000000 10.000000 
Rope3_Seg03 0.000000 0.000000 0.000000 0.000000 0.000000 0.000000 10.000000 
Rope3_Seg04 0.000000 0.000000 0.000000 0.000000 0.000000 0.000000 10.000000 
Rope3_Seg05 0.000000 0.000000 0.000000 0.000000 0.000000 0.000000 10.000000 
Rope3_Seg06 0.000000 0.000000 0.000000 0.000000 0.000000 0.000000 10.000000 
Rope3_Seg07 0.000000 0.000000 0.000000 0.000000 0.000000 0.000000 10.000000 
Rope3_Seg08 0.000000 0.000000 0.000000 0.000000 0.000000 0.000000 10.000000 
Rope3_Seg09 0.000000 0.000000 0.000000 0.000000 0.000000 0.000000 10.000000 
R_rear_hand01 0.000000 0.000000 0.000000 0.000000 0.000000 0.000000 10.000000 
R_rear_hand02 0.000000 0.000000 0.000000 0.000000 0.000000 0.000000 10.000000 
R_rear_hand03 0.000000 0.000000 0.000000 0.000000 0.000000 0.000000 10.000000 
Rope4_Seg01 0.000000 0.000000 0.000000 0.000000 0.000000 0.000000 10.000000 
Rope4_Seg02 0.000000 0.000000 0.000000 0.000000 0.000000 0.000000 10.000000 
Rope4_Seg03 0.000000 0.000000 0.000000 0.000000 0.000000 0.000000 10.000000 
Rope4_Seg04 0.000000 0.000000 0.000000 0.000000 0.000000 0.000000 10.000000 
Rope4_Seg05 0.000000 0.000000 0.000000 0.000000 0.000000 0.000000 10.000000 
Rope4_Seg06 0.000000 0.000000 0.000000 0.000000 0.000000 0.000000 10.000000 
Rope4_Seg07 0.000000 0.000000 0.000000 0.000000 0.000000 0.000000 10.000000 
Rope4_Seg08 0.000000 0.000000 0.000000 0.000000 0.000000 0.000000 10.000000 
Rope4_Seg09 0.000000 0.000000 0.000000 0.000000 0.000000 0.000000 10.000000 
L_rear_hand01 0.000000 0.000000 0.000000 0.000000 0.000000 0.000000 10.000000 
L_rear_hand02 0.000000 0.000000 0.000000 0.000000 0.000000 0.000000 10.000000 
L_rear_hand03 0.000000 0.000000 0.000000 0.000000 0.000000 0.000000 10.000000 
#Beginning of Data. Separated by tabs
#Fr	Tx	Ty	Tz	Rx	Ry	Rz	SF
[MASTER]
8 -136.262955 -1564.481812 1846.661621 0.000000 -0.002347 -89.999992 2424.114258
9 -206.480988 -1951.280151 2290.479980 0.000000 -0.002347 -90.000000 3016.028320
[root]
8 13.719778 -100.027893 1224.285278 -49.650757 -10.047341 162.273300 1228.441284
9 3.484303 -89.863152 920.762939 -34.201912 -5.512796 158.523651 925.144287
[chest]
8 -84.512650 -34.090519 0.000000 20.242167 -12.470012 177.000793 91.129311
9 -84.512650 -34.090519 0.000000 32.625797 -10.390653 170.501205 91.129311
[L_mid_tent01]
8 27.299629 22.177526 -249.918259 -2.000524 21.339958 67.299896 252.381149
9 27.299646 22.177528 -249.918259 -0.864236 20.980717 72.828590 252.381165
[R_mid_tent01]
8 23.228794 24.509907 226.238495 171.203445 -23.745798 64.315018 228.744751
9 23.228794 24.509907 226.238495 171.332489 -21.807022 66.981384 228.744751
[spine01]
8 -0.361383 -0.195265 0.000000 0.001797 0.001515 9.734776 0.410763
9 -0.361383 -0.195265 0.000000 0.001789 0.001524 9.174243 0.410763
[Bip01_Neck]
8 165.484543 71.581718 0.000119 176.643677 -1.657967 43.431911 180.302734
9 165.484543 71.581718 0.000119 176.643677 -1.657967 43.431911 180.302734
[L_humerus]
8 -13.983130 -135.272980 -120.471481 120.144897 80.953041 -149.127548 181.680161
9 -13.983130 -135.272980 -120.471481 110.858444 81.634392 -158.521393 181.680161
[R_humerus]
8 -13.983309 -135.273102 125.287651 -169.696472 -73.090576 -95.410408 184.909012
9 -13.983309 -135.273102 125.287651 -170.173965 -72.259926 -94.909882 184.909012
[weapon_bone]
8 235.964890 -300.705902 0.000000 0.000000 -89.951546 -128.212341 382.234833
9 235.964890 -300.705902 0.000000 0.000000 -89.951546 -128.212341 382.234833
[Bip01_Head]
8 213.674088 185.076462 20.027590 16.125521 -0.759340 -43.897594 283.391968
9 213.638092 185.176804 18.730761 17.151222 -1.457613 -43.900330 283.341705
[eye_left_bone]
8 -24.626970 125.451866 -64.772606 0.000000 -90.000000 -99.840431 143.318359
9 -24.626970 125.451866 -64.772606 0.000000 -90.000000 -99.840431 143.318359
[eye_right_bone]
8 -24.626970 125.451866 64.327362 0.000000 -89.965736 80.156380 143.117676
9 -24.626970 125.451866 64.327362 0.000000 -89.965736 80.156380 143.117676
[L_forearm]
8 322.776093 0.000000 -0.000119 0.000119 -0.002344 -95.807457 322.776093
9 322.776093 0.000000 -0.000119 0.000119 -0.002344 -95.807457 322.776093
[L_front_hand]
8 241.149185 -0.042021 -3.300071 -178.667953 -1.835447 -27.422350 241.171753
9 241.149185 -0.042021 -3.300071 -178.667953 -1.835447 -27.422350 241.171753
[L_weapon_bone]
8 156.183838 0.000000 0.000000 0.000014 0.000007 0.000001 156.183838
9 156.183838 0.000000 0.000000 0.000014 0.000007 0.000001 156.183838
[L_front_hand01_01]
8 86.095154 20.947098 -0.655860 -0.304872 -0.514302 68.276070 88.609184
9 86.095154 20.947098 -0.655860 -0.289102 -0.524108 66.611084 88.609184
[L_front_hand02_01]
8 86.935165 -11.437475 24.513514 144.546585 -56.255680 -49.772907 91.046425
9 86.935165 -11.437475 24.513514 142.580521 -55.269005 -47.395390 91.046425
[L_front_hand03_01]
8 86.637497 -14.123976 -20.424902 -144.732666 54.475910 -51.681892 90.126129
9 86.637497 -14.123976 -20.424902 -142.879868 53.494274 -49.391991 90.126129
[L_front_hand01_02]
8 71.020905 -0.000179 0.000030 0.000316 -0.002326 -105.453369 71.020905
9 71.020905 -0.000179 0.000030 0.000315 -0.002326 -105.433174 71.020905
[L_front_hand02_02]
8 71.020927 -0.000119 0.000060 0.000316 -0.002326 -105.453369 71.020927
9 71.020927 -0.000119 0.000060 0.000315 -0.002326 -105.433174 71.020927
[L_front_hand03_02]
8 71.020905 -0.000060 0.000060 0.000316 -0.002326 -105.453369 71.020905
9 71.020905 -0.000060 0.000060 0.000315 -0.002326 -105.433174 71.020905
[R_forearm]
8 322.776428 -0.000060 0.000030 0.209504 0.012586 -94.339050 322.776428
9 322.776428 -0.000060 0.000030 0.209504 0.012586 -94.339050 322.776428
[R_front_hand]
8 238.847015 -0.006795 2.210259 -2.635298 -10.645460 -26.312502 238.857239
9 238.847015 -0.006795 2.210259 -2.635298 -10.645461 -26.312506 238.857239
[R_weapon_bone]
8 155.664093 0.002503 -0.000030 0.003487 0.001180 -90.988930 155.664078
9 155.664093 0.002503 -0.000030 0.003487 0.001180 -90.988930 155.664078
[R_front_hand01_01]
8 87.624611 14.231146 22.918642 -144.302139 -56.138653 49.586014 91.683487
9 87.624611 14.231146 22.918642 -141.947067 -54.924732 46.726727 91.683487
[R_front_hand02_01]
8 89.356956 14.367283 -19.491137 144.866989 54.526855 52.081070 92.579636
9 89.356956 14.367283 -19.491137 142.634140 53.329136 49.315861 92.579636
[R_front_hand03_01]
8 87.286232 -22.307278 -0.143439 0.104166 -0.441299 -68.306496 90.091743
9 87.286232 -22.307278 -0.143439 0.092230 -0.445770 -66.286453 90.091743
[R_front_hand01_02]
8 71.020905 0.000060 0.000119 0.002323 -0.000334 106.381721 71.020905
9 71.020905 0.000060 0.000119 0.002323 -0.000334 106.381714 71.020905
[R_front_hand02_02]
8 71.020844 -0.000030 -0.000119 0.002323 -0.000334 106.381721 71.020836
9 71.020844 -0.000030 -0.000119 0.002323 -0.000334 106.381714 71.020836
[R_front_hand03_02]
8 71.020905 0.000000 0.000030 0.002323 -0.000334 106.381721 71.020905
9 71.020905 0.000000 0.000030 0.002323 -0.000334 106.381714 71.020905
[null_rope01_connect]
8 328.732483 0.000000 -0.000238 43.309544 61.216404 -103.287521 328.732483
9 328.732483 0.000000 -0.000238 29.486567 47.912415 -123.586212 328.732483
[Rope1_Seg01]
8 0.000022 0.000155 0.000000 49.487171 70.464104 -118.723755 0.000157
9 0.000022 0.000178 0.000000 43.518414 61.056614 -125.262512 0.000179
[Rope1_Seg02]
8 139.999863 -0.000179 0.000000 -0.511828 -9.640427 5.789763 139.999863
9 139.999863 -0.000179 0.000000 -1.503036 -11.593229 6.087946 139.999863
[Rope1_Seg03]
8 139.999924 0.000060 -0.000060 -1.395396 -10.660349 6.488595 139.999924
9 139.999924 0.000060 -0.000060 -3.120784 -12.725571 6.361155 139.999924
[Rope1_Seg04]
8 139.999924 -0.000060 -0.000119 -2.323317 -10.785191 6.698655 139.999924
9 139.999924 -0.000060 -0.000119 -4.285579 -11.100907 4.954358 139.999924
[Rope1_Seg05]
8 139.999832 0.000119 -0.000060 -2.697520 -7.917043 3.665073 139.999832
9 139.999832 0.000119 -0.000060 -0.665269 -1.950591 1.111110 139.999832
[Rope1_Seg06]
8 139.999954 0.000119 -0.000060 -2.857942 -5.527223 1.377916 139.999954
9 139.999954 0.000119 -0.000060 0.413037 0.336889 0.299618 139.999954
[Rope1_Seg07]
8 139.999985 0.000060 0.000000 -2.820006 -4.811649 1.288752 139.999985
9 139.999985 0.000060 0.000000 -0.365171 -1.069619 0.618360 139.999985
[Rope1_Seg09]
8 121.602913 0.000119 -0.000089 -89.793175 -1.359789 0.847147 121.602913
9 121.602913 0.000119 -0.000089 -89.793175 -1.359789 0.847147 121.602913
[L_mid_hand01]
8 103.859421 1.038730 8.195221 111.216118 -46.770245 -16.325294 104.187431
9 103.859421 1.038730 8.195221 110.016693 -43.583382 -14.630747 104.187431
[L_mid_hand02]
8 105.572853 -4.139662 -10.864139 -150.384232 34.904892 -44.592522 106.211075
9 105.572853 -4.139662 -10.864139 -148.402451 33.171711 -41.059570 106.211075
[L_mid_hand03]
8 104.641464 17.579376 -3.913581 -12.781255 13.855397 50.452671 106.179977
9 104.641464 17.579376 -3.913581 -13.575854 13.082141 47.042400 106.179977
[null_rope02_connect]
8 328.732849 0.000179 -0.000119 159.794510 -37.760433 146.930725 328.732849
9 328.732849 0.000179 -0.000119 164.882660 -23.607805 141.143784 328.732849
[Rope2_Seg01]
8 -0.000071 -0.000166 0.000000 9.405972 -44.191673 151.531555 0.000181
9 -0.000071 -0.000163 0.000000 19.698416 -63.039513 142.169464 0.000178
[Rope2_Seg02]
8 139.999741 -0.000060 -0.000119 -8.593348 15.255159 12.158359 139.999756
9 139.999741 -0.000060 -0.000119 -1.820367 13.810905 20.177267 139.999756
[Rope2_Seg03]
8 140.000107 0.000030 0.000000 -18.395546 20.952328 23.646505 140.000107
9 140.000107 0.000030 0.000000 -3.206326 20.443281 35.965080 140.000107
[Rope2_Seg04]
8 139.999802 0.000000 -0.000060 -15.555567 8.697572 22.870283 139.999802
9 139.999802 0.000000 -0.000060 -4.009010 9.148787 22.433413 139.999802
[Rope2_Seg05]
8 139.999985 -0.000060 0.000119 -8.644564 -2.840001 19.482458 139.999985
9 139.999985 -0.000060 0.000119 -1.912179 0.748258 11.340108 139.999985
[Rope2_Seg06]
8 139.999893 -0.000030 -0.000119 -4.128290 -6.079287 16.491175 139.999893
9 139.999893 -0.000030 -0.000119 -1.055858 -1.374974 10.683964 139.999893
[Rope2_Seg07]
8 139.999893 0.000060 -0.000060 -0.871691 -3.206291 8.673064 139.999893
9 139.999893 0.000060 -0.000060 -0.175380 -0.263731 7.980987 139.999893
[Rope2_Seg09]
8 121.338966 0.000089 -0.000060 33.793236 -1.359788 -0.847141 121.338966
9 121.338966 0.000089 -0.000060 33.793236 -1.359788 -0.847141 121.338966
[R_mid_hand01]
8 104.680779 11.144459 -10.335981 -27.387493 40.402237 54.098232 105.778534
9 104.680779 11.144459 -10.335981 -29.481638 39.038574 50.818577 105.778534
[R_mid_hand02]
8 104.070427 2.443552 8.231699 62.946606 -56.952805 23.709984 104.424065
9 104.070427 2.443552 8.231699 64.792824 -54.379646 21.475639 104.424065
[R_mid_hand03]
8 106.028137 -11.221827 -5.996406 -173.630432 14.503003 -63.260223 106.788818
9 106.028137 -11.221827 -5.996406 -172.901596 14.168235 -60.324333 106.788818
[spine02]
8 129.756927 0.001550 0.000119 -1.023899 -3.926965 6.770993 129.756927
9 129.756927 0.001550 0.000119 -1.023899 -3.926965 6.770993 129.756927
[spine03]
8 78.613907 0.087364 -4.898873 1.040681 4.146420 4.212376 78.766441
9 78.613914 0.087370 -4.898874 1.040681 4.146420 4.212376 78.766449
[pelvis]
8 169.435242 0.051022 0.000000 3.211426 -0.188958 -10.718684 169.435257
9 169.435242 0.051022 0.000000 3.889838 -0.189931 -10.719137 169.435257
[null_rope03_connect]
8 -1.257226 -2.466202 137.391083 9.855333 46.713120 -73.307945 137.418976
9 -1.257226 -2.466202 137.391083 7.983256 30.071028 -74.022751 137.418976
[null_rope04_connect]
8 -1.259640 -2.480268 -137.844437 9.855333 46.713120 -73.307945 137.872513
9 -1.259640 -2.480268 -137.844437 7.983256 30.071028 -74.022751 137.872513
[Rope3_Seg01]
8 0.000022 0.000155 0.000000 -127.597427 -36.356960 91.703026 0.000157
9 0.000022 0.000178 0.000000 -119.458275 -38.372639 78.833878 0.000179
[Rope3_Seg02]
8 139.999924 -0.000119 0.000060 -1.713320 -7.210430 -32.684219 139.999924
9 139.999924 -0.000119 0.000060 -0.521743 -4.253796 -31.613230 139.999924
[Rope3_Seg03]
8 139.999924 -0.000119 0.000119 -5.325013 -4.778150 -18.380644 139.999924
9 139.999924 -0.000119 0.000119 -4.616453 -4.649877 -21.720823 139.999924
[Rope3_Seg04]
8 139.999924 0.000119 0.000000 -14.629498 -0.133513 -15.189017 139.999924
9 139.999924 0.000119 0.000000 -10.513985 0.330986 -14.790560 139.999924
[Rope3_Seg05]
8 139.999924 -0.000238 0.000060 -66.242012 9.752148 -28.320938 139.999924
9 139.999924 -0.000238 0.000060 -45.107342 9.906784 -25.922384 139.999924
[Rope3_Seg06]
8 139.999893 -0.000119 -0.000060 -26.995617 22.221685 -2.475749 139.999893
9 139.999893 -0.000119 -0.000060 -32.905342 21.069843 -10.182613 139.999893
[Rope3_Seg07]
8 139.999771 0.000060 -0.000119 -4.586352 8.690279 3.108387 139.999771
9 139.999771 0.000060 -0.000119 -7.174519 9.783127 0.829196 139.999771
[Rope3_Seg08]
8 139.999985 -0.000060 0.000000 -1.417655 4.370522 1.981981 139.999985
9 139.999985 -0.000060 0.000000 -2.466898 4.993045 1.067621 139.999985
[Rope3_Seg09]
8 90.185997 -0.000179 -0.000060 89.793228 -1.359877 -0.847183 90.185997
9 90.185997 -0.000179 -0.000060 89.793228 -1.359877 -0.847183 90.185997
[R_rear_hand01]
8 103.366196 -6.073594 -10.757982 -170.781250 22.977589 -56.830040 104.101845
9 103.366196 -6.073594 -10.757982 -169.405167 22.402496 -53.260654 104.101845
[R_rear_hand02]
8 100.509819 12.039542 -7.992327 -23.185047 31.960989 54.046936 101.543350
9 100.509819 12.039542 -7.992327 -25.038765 30.595232 50.476662 101.543350
[R_rear_hand03]
8 101.539970 5.215704 5.435467 79.639084 -56.567936 12.539787 101.819031
9 101.539970 5.215704 5.435467 80.458870 -53.275658 11.535563 101.819031
[Rope4_Seg01]
8 0.000001 0.000189 -0.000153 41.095345 12.005738 47.857948 0.000243
9 0.000001 0.000210 -0.000153 38.493568 21.984413 49.851982 0.000260
[Rope4_Seg02]
8 139.999985 0.000060 0.000119 -7.702605 1.262838 -15.732173 139.999985
9 139.999985 0.000060 0.000119 -5.982553 5.914558 -14.801821 139.999985
[Rope4_Seg03]
8 139.999924 0.000000 -0.000238 -12.416979 4.408230 -19.857046 139.999924
9 139.999924 0.000000 -0.000238 -7.599319 9.229281 -17.888224 139.999924
[Rope4_Seg04]
8 139.999985 0.000000 0.000119 -9.461023 7.420746 -13.385326 139.999985
9 139.999985 0.000000 0.000119 -4.542647 9.624686 -11.849162 139.999985
[Rope4_Seg05]
8 139.999802 -0.000060 -0.000119 -9.963570 8.076910 -15.430281 139.999802
9 139.999802 -0.000060 -0.000119 -3.750689 8.369584 -13.350095 139.999802
[Rope4_Seg06]
8 139.999924 0.000000 0.000060 -11.908268 11.840148 -19.789335 139.999924
9 139.999924 0.000000 0.000060 -4.437390 9.781170 -18.399786 139.999924
[Rope4_Seg07]
8 139.999802 0.000000 0.000000 -5.540259 9.863732 -11.117548 139.999802
9 139.999802 0.000000 0.000000 -2.337108 7.848117 -12.947944 139.999802
[Rope4_Seg08]
8 139.999924 0.000000 0.000119 -3.303099 5.108262 -4.653805 139.999924
9 139.999924 0.000000 0.000119 -2.193481 4.093922 -5.949716 139.999924
[Rope4_Seg09]
8 90.185791 0.000060 0.000060 -135.617828 2.228885 0.850567 90.185791
9 90.185791 0.000060 0.000060 -135.617828 2.228885 0.850567 90.185791
[L_rear_hand01]
8 101.696655 -8.392275 -7.654577 -31.684452 -23.583008 144.025742 102.329041
9 101.696655 -8.392275 -7.654577 -31.553307 -23.761135 143.711090 102.329041
[L_rear_hand02]
8 102.726799 -1.568258 5.773216 82.701553 38.753956 171.553619 102.900848
9 102.726799 -1.568258 5.773216 82.664513 39.085827 171.495636 102.900848
[L_rear_hand03]
8 104.552910 9.721220 -10.420293 -163.975403 -19.004421 -142.009338 105.519653
9 104.552910 9.721220 -10.420293 -164.089569 -19.094524 -141.662735 105.519653
